# Blender v2.74 (sub 0) OBJ File: ''
# www.blender.org
mtllib arrow.mtl
o Box1
v 0.000517 0.064600 0.116000
v 0.000517 0.064600 -0.084000
v 0.500000 0.564600 -0.084000
v 0.500000 0.564600 0.116000
v -0.500000 0.564600 -0.084000
v -0.500000 0.564600 0.116000
vt 0.000000 1.000000
vt 0.000000 0.000000
vt 1.000000 0.000000
vt 1.000000 1.000000
vn 0.000000 1.000000 0.000000
vn 0.707500 -0.706700 0.000000
vn -0.706700 -0.707500 0.000000
vn 0.000000 0.000000 1.000000
vn -0.000000 0.000000 -1.000000
usemtl Standard
s 1
f 3/1/1 5/2/1 6/3/1 4/4/1
f 3/1/2 4/2/2 1/3/2 2/4/2
f 6/1/3 5/2/3 2/3/3 1/4/3
f 4/1/4 6/2/4 1/3/4
f 2/1/5 5/3/5 3/4/5
o Box
v 0.257831 0.525388 -0.086600
v 0.257831 0.525388 0.115400
v -0.242151 0.529648 -0.086600
v -0.242151 0.529648 0.115400
v 0.262091 1.025370 -0.086600
v 0.262091 1.025370 0.115400
v -0.237891 1.029630 0.115400
v -0.237891 1.029630 -0.086600
vt 1.000000 1.000000
vt 1.000000 0.000000
vt 0.000000 0.000000
vt 0.000000 1.000000
vt 0.500000 1.000000
vt 0.500000 0.000000
vn -0.008500 -1.000000 0.000000
vn 0.000000 0.000000 1.000000
vn 1.000000 -0.008500 0.000000
vn -1.000000 0.008500 0.000000
vn 0.000000 0.000000 -1.000000
usemtl Standard
s 1
f 8/5/6 10/6/6 9/7/6 7/8/6
f 12/9/7 13/10/7 10/7/7 8/8/7
f 12/9/8 8/5/8 7/6/8 11/10/8
f 14/9/9 9/5/9 10/6/9 13/10/9
f 11/9/10 7/5/10 9/6/10 14/10/10
